<?xml version="1.0" standalone="no"?><!DOCTYPE svg PUBLIC "-//W3C//DTD SVG 1.1//EN"
        "http://www.w3.org/Graphics/SVG/1.1/DTD/svg11.dtd">
<svg t="1713494514973" class="icon" viewBox="0 0 1024 1024" version="1.1" xmlns="http://www.w3.org/2000/svg" p-id="7764"
     width="64" height="64" xmlns:xlink="http://www.w3.org/1999/xlink">
    <path d="M187.59680000000003 995.8741333333332c-16.384 0-29.4912-13.1072-29.4912-29.4912 0-16.384 13.1072-29.4912 29.4912-29.4912h294.91200000000003v-135.9872H95.84640000000002c-36.59093333333333 0-67.17439999999999-30.037333333333333-67.72053333333334-66.62826666666666V94.75413333333336c0.5461333333333334-36.59093333333333 31.1296-66.62826666666666 67.72053333333334-66.62826666666666h831.7610666666666c36.59093333333333 0 67.17439999999999 30.037333333333333 67.72053333333334 66.62826666666666v639.5221333333334c-0.5461333333333334 36.59093333333333-31.1296 66.62826666666666-67.72053333333334 66.62826666666666h-386.6624v135.9872h294.91200000000003c16.384 0 29.4912 13.1072 29.4912 29.4912 0 16.384-13.1072 29.4912-29.4912 29.4912H187.59680000000003z m-102.67306666666667-261.5978666666667c0 6.5536 5.461333333333333 11.4688 11.4688 11.4688h829.5765333333333c6.5536 0 12.014933333333332-4.9152 12.014933333333332-11.4688v-638.976c0-6.007466666666666-5.461333333333333-11.4688-11.4688-11.4688H96.93866666666668c-6.5536 0-11.4688 4.9152-11.4688 11.4688l-0.5461333333333334 638.976z"
          p-id="7765" fill="#d946ef"></path>
    <path d="M814.5578666666668 508.7232c-51.882666666666665 0-94.48106666666666-42.05226666666667-94.48106666666666-94.48106666666666s42.05226666666667-94.48106666666666 94.48106666666666-94.48106666666666 94.48106666666666 42.05226666666667 94.48106666666666 94.48106666666666-42.05226666666667 94.48106666666666-94.48106666666666 94.48106666666666z m0-129.43359999999998c-19.6608 0-35.498666666666665 15.837866666666667-35.498666666666665 35.498666666666665s15.837866666666667 35.498666666666665 35.498666666666665 35.498666666666665 35.498666666666665-15.837866666666667 35.498666666666665-35.498666666666665c0.5461333333333334-19.6608-15.837866666666667-35.498666666666665-35.498666666666665-35.498666666666665zM417.5189333333333 508.7232V320.3072h188.416v188.416H417.5189333333333z m129.97973333333331-58.43626666666666v-70.99733333333333h-70.99733333333333v70.99733333333333h70.99733333333333zM96.93866666666668 508.7232l112.50346666666665-225.0069333333333 112.50346666666665 225.0069333333333H96.93866666666668z m141.44853333333333-46.42133333333334l-29.4912-58.9824-29.4912 58.9824h58.9824z"
          p-id="7766" fill="#d946ef"></path>
</svg>