<?xml version="1.0" standalone="no"?><!DOCTYPE svg PUBLIC "-//W3C//DTD SVG 1.1//EN" "http://www.w3.org/Graphics/SVG/1.1/DTD/svg11.dtd"><svg t="1713493077324" class="icon" viewBox="0 0 1024 1024" version="1.1" xmlns="http://www.w3.org/2000/svg" p-id="6263" xmlns:xlink="http://www.w3.org/1999/xlink" width="67" height="67"><path d="M617.984 576l0-128 86.016 0 0 128-86.016 0zM768 598.016l0-171.989333q0-18.005333-11.989333-29.994667t-29.994667-11.989333l-128 0q-18.005333 0-31.018667 11.989333t-13.013333 29.994667l0 171.989333q0 18.005333 13.013333 29.994667t31.018667 11.989333l32 0 0 64 64 0 0-64 32 0q18.005333 0 29.994667-11.989333t11.989333-29.994667zM470.016 640l0-256-64 0 0 105.984-86.016 0 0-105.984-64 0 0 256 64 0 0-86.016 86.016 0 0 86.016 64 0zM809.984 169.984q34.005333 0 59.989333 25.984t25.984 59.989333l0 512q0 34.005333-25.984 59.989333t-59.989333 25.984l-596.010667 0q-36.010667 0-61.013333-25.984t-25.002667-59.989333l0-512q0-34.005333 25.002667-59.989333t61.013333-25.984l596.010667 0z" fill="#d946ef" p-id="6264"></path></svg>