<?xml version="1.0" standalone="no"?><!DOCTYPE svg PUBLIC "-//W3C//DTD SVG 1.1//EN" "http://www.w3.org/Graphics/SVG/1.1/DTD/svg11.dtd"><svg t="1713493002570" class="icon" viewBox="0 0 1024 1024" version="1.1" xmlns="http://www.w3.org/2000/svg" p-id="2643" xmlns:xlink="http://www.w3.org/1999/xlink" width="67" height="67"><path d="M798.33273 901.021123h-553.095957c-81.573929 0-153.157111-68.081271-153.157111-145.947295V324.853752c0-77.454033 67.772279-142.857373 148.007242-142.857373 10.608731 0.514987 18.951519 9.372762 18.951519 19.981493 0 10.608731-8.342788 19.363508-18.951519 19.981492-58.605512 0-108.044257 47.172802-108.044257 102.894388V754.970831c0 55.51559 53.867632 106.087306 113.194126 106.087306h553.095957c60.25347 0 92.800644-54.588614 92.800644-106.087306V324.853752c0-57.781533-44.185878-102.894387-100.422451-102.894388-10.299738-0.926976-18.230537-9.578757-18.230537-19.981492 0-10.402736 7.930799-19.054516 18.230537-19.981493 78.587005 0 140.282438 62.725407 140.282438 142.857373V754.970831c-0.102997 83.324884-57.060551 146.050292-132.660631 146.050292z m0 0" fill="#d946ef" p-id="2644"></path><path d="M787.003018 221.959364H232.465098c-11.329712 0-20.49648-8.960772-20.49648-19.981492s9.166767-19.981493 20.49648-19.981493h554.53792c11.329712 0 20.49648 8.960772 20.496479 19.981493s-9.166767 19.981493-20.496479 19.981492z m-15.861598 0M894.738282 430.426071H124.626836c-15.7586 0-28.530276-8.960772-28.530276-19.981492s12.771676-19.981493 28.530276-19.981493h770.111446c15.7586 0 28.530276 8.960772 28.530276 19.981493 0 11.123718-12.771676 19.981493-28.530276 19.981492z m-22.04144 0" fill="#d946ef" p-id="2645"></path><path d="M331.754577 281.800845c-11.02072 0-19.981493-8.960772-19.981493-19.981493V142.033394c0.720982-10.505733 9.475759-18.539529 19.981493-18.53953s19.260511 8.136793 19.981492 18.53953v119.785958c0 11.123718-8.960772 19.981493-19.981492 19.981493z m359.460873 0c-11.02072 0-19.981493-8.960772-19.981493-19.981493V142.033394c0.720982-10.505733 9.475759-18.539529 19.981493-18.53953s19.260511 8.136793 19.981492 18.53953v119.785958c0 11.123718-8.857775 19.981493-19.981492 19.981493z m0 0" fill="#d946ef" p-id="2646"></path><path d="M461.634279 840.046671c-2.059948 0-4.119895-0.41199-5.767854-1.647958-5.355864-2.883927-7.930799-9.166767-5.767853-14.522632L495.726413 677.722792h-68.493261c-7.10682 0-12.462684-5.355864-12.462683-12.462683v-32.444177c0-2.471937 0.823979-4.943874 2.059947-7.106819L533.526453 451.33454c3.295916-4.943874 9.578757-6.69483 14.934621-4.531885 5.355864 2.059948 8.754778 7.930799 7.518809 13.698653l-30.281231 159.851941h70.141219c7.10682 0 12.462684 5.355864 12.462684 12.462683v32.444177c0 2.883927-0.823979 5.767854-2.883927 7.930798L470.801046 835.514786c-2.059948 2.883927-5.458861 4.531885-9.166767 4.531885z m-22.041441-187.249246h72.716154c4.119895 0 7.930799 2.059948 9.990746 4.943875 2.471937 3.295916 2.883927 7.518809 1.647959 11.226714l-31.92919 102.173406 91.358681-110.001207V645.793603h-72.304164c-3.707906 0-7.10682-1.647958-9.578757-4.531885-2.471937-2.883927-3.295916-6.69483-2.471937-10.402736l21.62945-114.636089-80.955944 120.403943v16.170589z m0 0" fill="#d946ef" p-id="2647"></path></svg>